/* XPM */
static char *eb1bf013d26b4dc593585629f943e1f1hqWEH5RGTKwab0yg[] = {
/* columns rows colors chars-per-pixel */
"32 32 54 1 ",
"  c None",
". c #1D8DD9",
"X c #2292DE",
"o c #3F9EDF",
"O c #0888E0",
"+ c #1D94E6",
"@ c #0A92F0",
"# c #2396E5",
"$ c #269BEA",
"% c #299EEE",
"& c #2CA2F3",
"* c #33A6F6",
"= c #3CAAF6",
"- c #419FDF",
"; c #43A2E3",
": c #46A7EA",
"> c #48AAEF",
", c #42ADF6",
"< c #4AAEF3",
"1 c #4EB2F7",
"2 c #53B4F7",
"3 c #59B6F7",
"4 c #5FB9F8",
"5 c #69BDF7",
"6 c #66BCF8",
"7 c #6ABEF8",
"8 c #6EC0F8",
"9 c #74C2F8",
"0 c #7AC5F9",
"q c #83C9F9",
"w c #8CCDF9",
"e c #91CFFA",
"r c #93D0FA",
"t c #9CD4FA",
"y c #A3D6FB",
"u c #A6D8FB",
"i c #ACDBFB",
"p c #B3DEFB",
"a c #B8DFFB",
"s c #B7E0FC",
"d c #BCE2FC",
"f c #BEE8FC",
"g c #C3E5FC",
"h c #C9E7FC",
"j c #C4EAFD",
"k c #CDEAFC",
"l c #D3ECFC",
"z c #DAEFFD",
"x c #CEF0FD",
"c c #D2F1FD",
"v c #DEF0FD",
"b c #E3F3FD",
"n c #ECF7FD",
"m c #F1F9FE",
/* pixels */
" ccccxxxkkxjjxxjjjgfgggggggggaq ",
"jmnmnnbbbzvvzllllllklkkkkhkkggh ",
"cmnvzzvzzzzlzlllzklkklklkkkhggl1",
"xnvvzzczzzzlzlllllkllkkkkkkgggk,",
"lbvvvzzzzzlllllllllkkkkkkhhgggl=",
"kbzzzzzzzllzlllllkkklkkkkgggggk=",
"xvlllllllllllkklkkkkhhhhgddgddk*",
"xzlllkllkkkkkhhhhgghhggaaaaaaak&",
"xkkkkkhkhhhghhgggggggdpppppppigo",
"jkkhgghgggggffddddssaiiiiiiiiid$",
"jgggfgffddddssssppapyyyyyuuyyya%",
"kdddddfsdadassspppyytyytttytyya$",
"jdssssssapppiiiiuttrttrtttrtttp#",
"fspppiipiiiiiuuterrrrrerereeeei#",
"fiiiuuiiuuuytewwwwwwwwwwwwwwwwi#",
"suuuuuutyytewwwqwqwqqqwqwqwqwqyX",
"fttyttttwqqqqqqw0qq0q0q0qq0qq0y.",
"srewwq0q7q7q7q7q00000900000009t.",
"u90079077qq77q7799999999999999t.",
"u77777777777777785858858585878r.",
"u77777777777566655555566777777r.",
"u09977777777577655556888778999t.",
"pqqqq0q0q77q7q779999990000q0qqy.",
"prwwwwqqwwqqqwwqqqqqqqqwwwwwwwi.",
"atyttteeeeeweewewweeeeeertttttp.",
"diiuuuuuyyyyyyyyyyyyyyyyyyuuuia.",
"dddappppippiiiiiiiiiiippppppaag.",
"gggggggagdadaaaaaaaddddddgggghl.",
"aaaghhhhhhhhhhhhhhhhhhkhhhhggaaX",
"gttttyyyiiippaaaaapaiiiiyytytti#",
"ygpipaipiiiiiiiiiiiiiiiiiiuuup7@",
"  wqq77766321<>:;--ooooooooooXO "
};
