/* XPM */
static char *_289aabd539c4c94a2d96544de313a53eVmddUIdoe9m1UZk[] = {
/* columns rows colors chars-per-pixel */
"32 32 154 2 ",
"   c None",
".  c #5D5C5C",
"X  c #6B6265",
"o  c #6E6568",
"O  c #7B7B7B",
"+  c #E7A101",
"@  c #E8A202",
"#  c #EAA60B",
"$  c #EAA80F",
"%  c #E5A616",
"&  c #EBAA13",
"*  c #ECAE1B",
"=  c #EDB01E",
"-  c #DFAA2D",
";  c #DDAB35",
":  c #DDAC3B",
">  c #E3A821",
",  c #EAAE23",
"<  c #E2AB2C",
"1  c #E9AF28",
"2  c #EEB223",
"3  c #EFB52A",
"4  c #F0B72C",
"5  c #F0B82F",
"6  c #E2AC33",
"7  c #ECB534",
"8  c #E3B33E",
"9  c #F1BA34",
"0  c #F3BE3B",
"q  c #F3C03F",
"w  c #DDB355",
"e  c #DFB658",
"r  c #E5B443",
"t  c #EBBC45",
"y  c #E3B54B",
"u  c #F2BF42",
"i  c #EBBF55",
"p  c #DAB665",
"a  c #D7B76D",
"s  c #DBBA6C",
"d  c #D6B874",
"f  c #E0BD6F",
"g  c #EFC04A",
"h  c #F4C243",
"j  c #F6C649",
"k  c #F7C94B",
"l  c #F8CB4D",
"z  c #ECC052",
"x  c #ECC158",
"c  c #F6CA55",
"v  c #F9CE51",
"b  c #FBD155",
"n  c #FDD55A",
"m  c #FED85E",
"M  c #EDC563",
"N  c #F1C761",
"B  c #F5CE64",
"V  c #F4CE6C",
"C  c #F6D067",
"Z  c #FED963",
"A  c #F6D06F",
"S  c #FEDB6F",
"D  c #E4C375",
"F  c #E9C97C",
"G  c #F1CF71",
"H  c #F1D27B",
"J  c #FAD97A",
"K  c #98898D",
"L  c #9B8D91",
"P  c #BF9FA8",
"I  c #A7A6A6",
"U  c gray68",
"Y  c #B5B3B4",
"T  c #B9B9B9",
"R  c #C0A2AA",
"E  c #C0B6B9",
"W  c #C5BCBE",
"Q  c #D4C39D",
"!  c #EBCD83",
"~  c #E6CB89",
"^  c #EBCE8A",
"/  c #F2D386",
"(  c #FDDF86",
")  c #F2D58B",
"_  c #E0CA97",
"`  c #E3CF9B",
"'  c #E6D09D",
"]  c #F0D793",
"[  c #F7DB91",
"{  c #F8DC92",
"}  c #F3DD9E",
"|  c #FDE087",
" . c #CEC2A6",
".. c #DAC9A4",
"X. c #D0C4A9",
"o. c #C6C4BF",
"O. c #CCC7BE",
"+. c #D7CBB0",
"@. c #DCD0B4",
"#. c #DBD2BE",
"$. c #E3CFA0",
"%. c #E8D4A4",
"&. c #E5D8B7",
"*. c #E1D6BA",
"=. c #F4E0A6",
"-. c #FDE9AC",
";. c #C3BFC0",
":. c #C4C3C3",
">. c #C9C6C2",
",. c #CCC9C5",
"<. c gray79",
"1. c #D3C3C7",
"2. c #D0CCC2",
"3. c #D5C7CB",
"4. c #DCD5C5",
"5. c #DCD8CC",
"6. c #D5D2D3",
"7. c #DCDAD3",
"8. c #DCDBDB",
"9. c #E3D8C0",
"0. c #E4DDC9",
"q. c #E3D6DA",
"w. c #E3DDDC",
"e. c #EFE2C4",
"r. c #EBE1C9",
"t. c #F0E3C5",
"y. c #E7E2D4",
"u. c #E4E2DB",
"i. c #EDE9DD",
"p. c #FAEFD2",
"a. c #FAF0D2",
"s. c #E6E5E3",
"d. c #E4E4E4",
"f. c #E7E7E7",
"g. c #E6E6E6",
"h. c #E1E1E1",
"j. c #EAE9E5",
"k. c #EDEBE6",
"l. c #EEECE5",
"z. c #E9E9E9",
"x. c #EBEBEB",
"c. c #EDECEC",
"v. c #EDECE9",
"b. c #F0EBE8",
"n. c #F1EDEC",
"m. c #FDF6E1",
"M. c #F5F1EA",
"N. c #F5F3EF",
"B. c #F2F0F0",
"V. c gray97",
"C. c #FAF9F9",
"Z. c #FBFBFB",
"A. c #F9F9F9",
"S. c #FDFDFD",
/* pixels */
"                                                                ",
"                                                                ",
"                        V.Z.Z.S.S.Z.Z.V.                        ",
"                    Z.m.-.( S Z Z S | -.m.Z.                    ",
"                c.p.J v b n n m Z n n b b J p.N.                ",
"              N.[ k l v v n n n m n n b b l l { N.              ",
"            M.V h k l v b b n n n n b b l l l j A M.            ",
"          b.V h h k k l v b b n n b b b l l l h h V n.          ",
"        q./ 0 h h j j l l v v v v b v l l j j h h h ) q.        ",
"        t.0 0 h h h j j l B =.v } C l l l l h h h q 0 t.        ",
"      w.x 0 0 q h h j j k G k.l i.H l j j h h h q 0 0 N w.      ",
"      0.5 9 0 0 q 0 h B V ) k.V i.[ c j j h h h 0 0 9 9 r.      ",
"    P ^ 4 5 9 0 0 q h y.v.c.c.c.c.c.v./ u u h 0 0 0 5 4 ) R     ",
"    1.i 2 4 9 9 0 0 0 t &.v.z.` ` 0.z.j.j u u 0 9 5 5 4 i 3.    ",
"    w.7 2 2 4 5 9 0 0 0 ! z.u.u h z z.z.N 0 0 9 9 5 5 2 7 h.    ",
"    8.* * 2 2 4 5 9 9 0 ! f.u.h h F z.z.t 9 9 5 5 4 2 * , d.    ",
"    8.* & * 2 2 3 5 5 9 F s.z.z.j.f.f.u.u 9 5 5 2 2 * * * h.    ",
"    6., & & * 2 2 2 4 5 F s.w.8 8 r *.g.%.5 3 2 2 * & & 1 8.    ",
"    E 8 $ $ & & * = 2 2 D s.w.4 5 3 ~ g.9.2 2 * * & & $ r W     ",
"    K f # # $ & & * * 2 ' h.w.~ ! ^ u.h._ * * & & & $ # D L     ",
"      +.@ # # $ $ & & $.h.h.h.w.h.h.h.#.< & & & $ # # # @.      ",
"      ;.6 @ @ @ # # $ < 6 p 8.: 5.s ; % & & $ # # + + 6 :.      ",
"      X Q + @ @ + # # # # r 7.$ 4.y # $ # # # @ + + + ..o       ",
"        Y w @ @ @ @ + + @ > d @ a < @ @ @ @ @ @ + + i Y         ",
"          >.< + + + + + + @ @ @ @ @ @ @ + + @ + + 6 ,.          ",
"            O.6 + @ + + @ @ @ @ @ @ + + + + + @ 6 2.            ",
"              o.w + + + @ @ @ @ @ + + @ + + + w >.              ",
"                I Q 6 + @ + @ @ @ @ @ + + 6 Q Y                 ",
"                  . Y X.p ; % # @ % 6 p X.T .                   ",
"                        O I :.<.<.;.I O                         ",
"                                                                ",
"                                                                "
};
