/* XPM */
static char *_9b0bdb713964fa89caecb3726e655b9Qb47kkuNoEVo5CrD[] = {
/* columns rows colors chars-per-pixel */
"32 32 120 2 ",
"   c None",
".  c #643513",
"X  c #693714",
"o  c #6C3915",
"O  c #733C16",
"+  c #007300",
"@  c #7B4117",
"#  c #76441C",
"$  c #70523B",
"%  c #5F5046",
"&  c #5F534B",
"*  c #6D615A",
"=  c #7E7E7F",
"-  c #814418",
";  c #944C1B",
":  c #984F1C",
">  c #90551C",
",  c #9D521D",
"<  c #A2551E",
"1  c #A8581F",
"2  c #925424",
"3  c #9F5621",
"4  c #A45720",
"5  c #A55A23",
"6  c #AB5C22",
"7  c #B05E22",
"8  c #946433",
"9  c #9E6D38",
"0  c #AD6127",
"q  c #AD6824",
"w  c #AE6329",
"e  c #A96B28",
"r  c #B46225",
"t  c #B96626",
"y  c #B3662A",
"u  c #B86728",
"i  c #B4692C",
"p  c #BB6B2C",
"a  c #BE702F",
"s  c #A76632",
"d  c #A96E3C",
"f  c #BB6E31",
"g  c #BF7234",
"h  c #BF773C",
"j  c #B37A3E",
"k  c #C16D2B",
"l  c #C4712E",
"z  c #C37431",
"x  c #C97631",
"c  c #CD7A34",
"v  c #C37739",
"b  c #C47A3C",
"n  c #CA7C3C",
"m  c #D17E36",
"M  c #82766E",
"N  c #1D8B06",
"B  c #009500",
"V  c #009900",
"C  c #228F07",
"Z  c #229008",
"A  c #29950B",
"S  c #25A923",
"D  c #29AB27",
"F  c #2AAB29",
"G  c #33B12F",
"H  c #34AE34",
"J  c #37B232",
"K  c #3BB435",
"L  c #3EB539",
"P  c #42B73C",
"I  c #46B940",
"U  c #4ABB44",
"Y  c #52BE4B",
"T  c #56BD54",
"R  c #58BF54",
"E  c #54C04D",
"W  c #5AC252",
"Q  c #5CC158",
"!  c #60C557",
"~  c #63C55D",
"^  c #67C85E",
"/  c #6BC864",
"(  c #6DC66B",
")  c #6EC968",
"_  c #73CB6C",
"`  c #77CE70",
"'  c #7BCF74",
"]  c #7FCD7D",
"[  c #7ED176",
"{  c #CC8737",
"}  c #CF813E",
"|  c #D18037",
" . c #D58239",
".. c #DA863A",
"X. c #DA883F",
"o. c #BA8042",
"O. c #CD8445",
"+. c #C78946",
"@. c #CF8E4A",
"#. c #D28440",
"$. c #D68A44",
"%. c #DC8D46",
"&. c #D48C4B",
"*. c #D6944F",
"=. c #DA9452",
"-. c #DE9A5A",
";. c #E09E5D",
":. c #E2A061",
">. c #E5A769",
",. c #E5AB6F",
"<. c #E7AD71",
"1. c #E8B075",
"2. c #81D17A",
"3. c #8E8E8E",
"4. c #EEBE8A",
"5. c #83CF81",
"6. c #86D083",
"7. c #8AD385",
"8. c #8CD389",
"9. c #94D890",
/* pixels */
"                                                                ",
"i i i i i i i i i i i i i i i i i i i i z                       ",
"i | | | | | | | | | | | | | | | | | | | X.                      ",
"i ..@.@.8                             z X.                      ",
"i ..b ;.*.j                           i { V +                   ",
"i ..z %.<.=.+.                        e A T +                   ",
"i ..a ..X.<.;.*.9                     Z T 8.+                   ",
"y = a ......,.>.&.o.                V T ] 5.+                   ",
"w = a %.%.....;.4.@               B T ] ( 5.+                   ",
"i  .a %.$.$.m ..;..             B T ] ( ( 5.V V V V V V V V V + ",
"w  .p %.| %.%. .;..           B T ] ( ( ( ] 6.6.7.6.7.8.7.8.9.+ ",
"w | a %.m %. .c -..         B L ] ( ( ( ( / ~ W R Y Y R W / 2.+ ",
"w | p %.c %.{ x =..       B H ] ( ( ( R U K L P P U U Y E W _ + ",
"0 m u %.c %.} x =..     B H 8.( ( Q L K K P P P U U E E W W ` + ",
"0 c i n c %.c x &..     B F 5.( I G J K P P P U U E E W W ! [ + ",
"0 x i c a $.c l &..       B F R J J K L P P U U E E W W ! ~ [ + ",
"5 c y x x z l l &..         B S T L L P P U U Y E W W ~ ~ ^ 2.+ ",
"5 z y #.n x s l O.M           B S R P I U ~ / _ _ _ ` ` [ 2.7.+ ",
"5 l w #.X.c 3.$ b *             B S Q U U / + + + + + + + + + + ",
", 3.6 } x } d 2 h &               V D ~ Y ) +                   ",
", ( 1 v x z v p h %                 V F / _ +                   ",
", u 1 v l l p t g .                   N L ' +                   ",
", k 1 v k k u r g .                   > C U +                   ",
"; r < r t u r r f X                   , q V +                   ",
"; r 3 7 5 7 7 7 f X                   ; t                       ",
"; r , r 7 4 6 6 y o                   ; r                       ",
"      y 7 7 3 1 r o                                             ",
"        1 7 7 7 7 O                                             ",
"          6 7 7 r O                                             ",
"          4 6 7 7 O                                             ",
"            , 6 7 @                                             ",
"              : 6 -                                             "
};
