/* XPM */
static char *cd2b3c617ec44bd9dfda49e2f26e1aa4UaV9xolpPobnLDCG[] = {
/* columns rows colors chars-per-pixel */
"32 32 190 2 ",
"   c None",
".  c #020101",
"X  c #0B0301",
"o  c #01050C",
"O  c #0D0B0A",
"+  c #06080E",
"@  c #130501",
"#  c #1C0A01",
"$  c #190701",
"%  c #1B130B",
"&  c #010813",
"*  c #020C1C",
"=  c gray8",
"-  c #1B1B1B",
";  c #230C01",
":  c #2E0C02",
">  c #240602",
",  c #380F00",
"<  c #330D03",
"1  c #281407",
"2  c #371908",
"3  c #2C2A15",
"4  c #382C1C",
"5  c #282607",
"6  c #01112E",
"7  c #291A20",
"8  c #30162B",
"9  c #39322D",
"0  c #3B3527",
"q  c #373737",
"w  c #2D2824",
"e  c #4B0D04",
"r  c #540E05",
"t  c #5A0F05",
"y  c #431403",
"u  c #471906",
"i  c #531F05",
"p  c #6B1406",
"a  c #731107",
"s  c #7C1509",
"d  c #681919",
"f  c #4E2105",
"g  c #462208",
"h  c #522306",
"j  c #5A2B0B",
"k  c #5B2409",
"l  c #4D2A14",
"z  c #632907",
"x  c #692C07",
"c  c #66310B",
"v  c #74330A",
"b  c #7C360A",
"n  c #783A0D",
"m  c #4F1A27",
"M  c #512621",
"N  c #473923",
"B  c #553B20",
"V  c #5D3833",
"C  c #703826",
"Z  c #4C412B",
"A  c #5A4E34",
"S  c #60432B",
"D  c #70482D",
"F  c #6F512D",
"G  c #674B32",
"H  c #675436",
"J  c #6D5535",
"K  c #71603F",
"L  c #011B48",
"P  c #04265B",
"I  c #153761",
"U  c #08367B",
"Y  c #083476",
"T  c #062A62",
"R  c #2A424D",
"E  c #374A56",
"W  c #3D4C47",
"Q  c #1E4378",
"!  c #464646",
"~  c #4C4B4B",
"^  c gray33",
"/  c #5D5D5D",
"(  c #5C5A54",
")  c #50564C",
"_  c #7A6643",
"`  c #756442",
"'  c #6F625B",
"]  c #7A685C",
"[  c #6A6A6A",
"{  c #7A7A7A",
"}  c gray46",
"|  c #841A07",
" . c #8A140A",
".. c #8E1B08",
"X. c #9F1F10",
"o. c #AB170B",
"O. c #A61A0A",
"+. c #B31E0A",
"@. c #8F2B08",
"#. c #9C2009",
"$. c #823B0D",
"%. c #982E18",
"&. c #88321A",
"*. c #AD250A",
"=. c #B4210A",
"-. c #A13D0A",
";. c #953820",
":. c #8C3F31",
">. c #D21B0D",
",. c #D61B0F",
"<. c #C8210C",
"1. c #DB250D",
"2. c #DF300C",
"3. c #E4220E",
"4. c #E6290D",
"5. c #F32C0E",
"6. c #EA3C0E",
"7. c #F4330E",
"8. c #F53C0F",
"9. c #89410F",
"0. c #8B4411",
"q. c #844110",
"w. c #B5440B",
"e. c #827115",
"r. c #805333",
"t. c #91573F",
"y. c #CF4F0D",
"u. c #D7480D",
"i. c #F74A0F",
"p. c #F6440F",
"a. c #EA560F",
"s. c #F9530F",
"d. c #F45B0F",
"f. c #FA5C10",
"g. c #F4472F",
"h. c #826D47",
"j. c #986D42",
"k. c #90794E",
"l. c #A66A4C",
"z. c #C7B224",
"x. c #F0CA21",
"c. c #F7DA27",
"v. c #998053",
"b. c #A98959",
"n. c #AA915F",
"m. c #AA847E",
"M. c #BDA36C",
"N. c #EE8172",
"B. c #C5A66C",
"V. c #CFB175",
"C. c #DBBB7C",
"Z. c #D0B376",
"A. c #E7BC75",
"S. c #D3C351",
"D. c #FEC779",
"F. c #FDCA7D",
"G. c #F4C57A",
"H. c #0A3E8C",
"J. c #073786",
"K. c #043D9D",
"L. c #083E95",
"P. c #0A4297",
"I. c #0641A1",
"U. c #0946A5",
"Y. c #0B4AA9",
"T. c #0A48A7",
"R. c #848484",
"E. c #949494",
"W. c #A6A6A6",
"Q. c #ABACAB",
"!. c #BBBBBB",
"~. c #C4A29D",
"^. c #D7A49D",
"/. c #F8CD83",
"(. c #FED185",
"). c #F5D18B",
"_. c #FCD68D",
"`. c #FED88F",
"'. c #FFD990",
"]. c #E8C683",
"[. c #C3C4C3",
"{. c #D2C3C1",
"}. c #D2D2D2",
"|. c #DCDDDD",
" X c #DCD1D0",
".X c #E0D2D0",
"XX c #E4E5E4",
"oX c #E9EAEA",
"OX c #F6F6F6",
"+X c #FBFBFB",
/* pixels */
"                            . $ . .                             ",
"                          2 w.y.d.-.;                           ",
"              . q q .   X t.^..Xl.f.d.h .                       ",
"          . ~ !.R.R.[ . , ~.g.g. Xu.f.d.u                       ",
"          w OXOX9 d | ..| :.m.N.{.u.s.s.a.@                     ",
"          ~ |.Q.X > e ..2.7.2.%.C 6.p.p.i.@..                   ",
"          = oX[.}.! . . H &.1.4.1.s *.8.8.6.@                   ",
"          . [ +XOX+XXX9 A _.b.%.>.1.X.#.7.7.p                   ",
"            . E.Q.( ) 4 3 '.'.A b.;.O.a *.5.=.X                 ",
"            . - 9 G.(._.M.).Z.= `.'.C.K y 4.4.<.e               ",
"                h.D.(.`.'.).C.k.'.'.C.l z p =.>.o..             ",
"                K D.(._.'.'.`.Z._ /.2 e l B.B.S a .             ",
"                % b.F._.Z.H l $ 1 (.G 2 M.n.A.G.X               ",
"                  . % 2 : y , : J (.).].C.n.F.G.O               ",
"                  . @ : , : : B (.'.'.'.'.M.G.v.                ",
"                    X r N < r F `.'.`._ J ` N .                 ",
"                      < C k.s j.F.A.Z $ > X X                   ",
"              . .     . O 7 D _ ) u t 5.3.,.a X                 ",
"          . 1 c j . . . P ..X.J.P.o.<.a +.3. .V ! O             ",
"        . = $.0.9.g 5 ^ Y.P.E Q P.o.3.,.t M }.+XoX/ +           ",
"        . } n $.$.h e.E Y.) c.S.U d 3.>.o./ OX+X+XoXR.          ",
"        . { j $.b h 3 P.Y.W x.z.U H.m d 8 W.OX+XW.{ |.O         ",
"          - ] b b x + T.Y.P.R I Y.Y.Y.U.P }.oX+X{ XXoX=         ",
"          . ( h x j # Y Y.Y.Y.Y.Y.Y.U.K.L / ~ XXOX+X[..         ",
"            = ' z z ; & L.I.I.I.K.K.J.6 u u ~ }.|.E.=           ",
"            . = . . .   o T L.K.K.K.P h u z h 4 + .             ",
"                          . . & * o . f h v b G q               ",
"                                    . f x b b j R.              ",
"                                      # b b $.c E..             ",
"                                      . v q.9.n R..             ",
"                                      . 2 0.0.g =               ",
"                                        . . X .                 "
};
