/* XPM */
static char *a8c5132a2bc740bdc7c388e7ce2c8c21dBv8qOc0D3xUCeYs[] = {
/* columns rows colors chars-per-pixel */
"32 32 187 2 ",
"   c None",
".  c #78350C",
"X  c #79350C",
"o  c #7A350C",
"O  c #7B350C",
"+  c #7C350C",
"@  c #7D350C",
"#  c #7E350C",
"$  c #7F350C",
"%  c #80350C",
"&  c #81350C",
"*  c #82350D",
"=  c #83350D",
"-  c #84350D",
";  c #85350D",
":  c #86350D",
">  c #87350D",
",  c #89300B",
"<  c #8A300B",
"1  c #8A300C",
"2  c #8A310C",
"3  c #8A320C",
"4  c #8A320D",
"5  c #8B320D",
"6  c #8B330D",
"7  c #8B340D",
"8  c #88360D",
"9  c #89360D",
"0  c #8A360D",
"q  c #8B360D",
"w  c #8C350D",
"e  c #8C360D",
"r  c #8D360D",
"t  c #8E360D",
"y  c #8F360D",
"u  c #8C350E",
"i  c #8D350E",
"p  c #8D360E",
"a  c #8D370E",
"s  c #8D370F",
"d  c #8E370F",
"f  c #8F390D",
"g  c #8E380F",
"h  c #91330C",
"j  c #90360D",
"k  c #91360D",
"l  c #92360D",
"z  c #93360D",
"x  c #94360D",
"c  c #95360D",
"v  c #96360D",
"b  c #97360D",
"n  c #98360D",
"m  c #99360D",
"M  c #99370D",
"N  c #9A370D",
"B  c #9B370D",
"V  c #90390D",
"C  c #8E3910",
"Z  c #8F3910",
"A  c #8F3A10",
"S  c #8F3B10",
"D  c #8F3B11",
"F  c #903C11",
"G  c #903D11",
"H  c #913D12",
"J  c #923E12",
"K  c #923F12",
"L  c #924012",
"P  c #924113",
"I  c #934113",
"U  c #934114",
"Y  c #944114",
"T  c #944314",
"R  c #944315",
"E  c #954415",
"W  c #954515",
"Q  c #954615",
"!  c #964615",
"~  c #964716",
"^  c #964816",
"/  c #974817",
"(  c #974917",
")  c #B0400F",
"_  c #C14410",
"`  c #C24410",
"'  c #C24411",
"]  c #C24511",
"[  c #C24611",
"{  c #C34711",
"}  c #C44712",
"|  c #C44812",
" . c #C44813",
".. c #C44913",
"X. c #C54913",
"o. c #C54A13",
"O. c #C54B14",
"+. c #C64C14",
"@. c #C74D15",
"#. c #C74E15",
"$. c #C84E15",
"%. c #C84F15",
"&. c #C85015",
"*. c #C85016",
"=. c #C95016",
"-. c #C95116",
";. c #C95216",
":. c #CA5217",
">. c #CA5317",
",. c #CA5318",
"<. c #CA5418",
"1. c #CB5518",
"2. c #CB5618",
"3. c #CB5619",
"4. c #CC5619",
"5. c #CC5719",
"6. c #CD5719",
"7. c #CD591A",
"8. c #CE5A1A",
"9. c #CE5B1B",
"0. c #CF5B1B",
"q. c #CF5C1C",
"w. c #D05C1C",
"e. c #D05D1C",
"r. c #D15E1C",
"t. c #D15F1D",
"y. c #D2601D",
"u. c #D2621E",
"i. c #D3631E",
"p. c #D3631F",
"a. c #D4641F",
"s. c #D4651F",
"d. c #D56520",
"f. c #D56620",
"g. c #D56721",
"h. c #D66721",
"j. c #D66822",
"k. c #D66922",
"l. c #D66923",
"z. c #CD673D",
"x. c #CD683E",
"c. c #CD693E",
"v. c #CE6A3E",
"b. c #CE6A3F",
"n. c #CF6A3F",
"m. c #CF6B3F",
"M. c #D06C3F",
"N. c #D06D3F",
"B. c #CE6C43",
"V. c #D06D40",
"C. c #D16D40",
"Z. c #D16E40",
"A. c #D16F40",
"S. c #D26F41",
"D. c #D27141",
"F. c #D27142",
"G. c #D37142",
"H. c #D37242",
"J. c #D37342",
"K. c #D47343",
"L. c #D47443",
"P. c #D57543",
"I. c #D57644",
"U. c #D67644",
"Y. c #D67744",
"T. c #D77845",
"R. c #D77945",
"E. c #D87A46",
"W. c #D87B47",
"Q. c #D97B47",
"!. c #DA7C48",
"~. c #DA7D48",
"^. c #DA7E48",
"/. c #DA7F48",
"(. c #DA8048",
"). c #DB8048",
"_. c #DB8049",
"`. c #DC8149",
"'. c #DC8249",
"]. c #DD834A",
"[. c #DE844C",
"{. c #DE854C",
"}. c #DE864D",
"|. c #DF864D",
" X c #DF874D",
".X c #DF884F",
"XX c #DF8850",
/* pixels */
"                                                                ",
"                                                                ",
"      $ $ $ $ $ $ $ $ $ $ $ $ $ $ $ $ $ $ $ $ % $ $ $ $ $       ",
"      f _ _ _ _ _ _ h _ _ _ _ _ h _ _ _ ` ` h ` _ _ _ _ V       ",
"    % ) B.B.B.B.B.h B.B.B.B.B.B.h B.B.B.B.B.B.h B.B.B.B.) $     ",
"    N N N N N b b N b b b z b z z z p z p z w w p 9 p 9 9 9     ",
"    N .X.X.X}.}.[./ ].'.(.(.!.).U /.W.E.E.E.T.K U.U.I.U.K.:     ",
"    N }.l.l.f.f.s.~ '.u.u.u.t.r.T W.w.9.4.4.4.K U.-.-.-.-.:     ",
"    N }.f.s.s.s.i.~ !.u.t.t.w.w.U I.9.4.5.5.5.F J.-.-.-.+.:     ",
"    N ~ ^ ^ ~ ~ ~ T T I I I K K K K K K C C f p C f s p f :     ",
"    N /.!.^ !.!.E.E.E.E.I T.I.I.I.K.K.C I.H.H.H.H.S.p M.S.:     ",
"    N u.u.T !.t.t.w.9.9.J I.4.4.,.,.-.C H.$.$.$.O.O.p S.O.%     ",
"    b t.t.U E.9.9.4.4.4.K I.,.-.-.-.-.C S.+.O.o.o.o.6 B._ :     ",
"    b U P K K K K K F F C C C F C p p p p p p p p 6 6 5 5 %     ",
"    b R.R.I.I.U.F K.K.K.K.H.H.p H.N.S.B.M.M.6 M.v.v.z.z.B.%     ",
"    b 5.4.5.4.<.V H.-.-.$.$.+.p M.o.o.o.o.} 6 B._ _ _ _ ` %     ",
"    z 5.4.,.,.-.C H.$.$.$.o.o.9 M.o.o._ _ } < v._ _ _ _ _ $     ",
"    z D C C C f s f p p p p p p p 5 5 5 , , < < , 1 , , , %     ",
"    z H.K.S.p H.S.S.M.M.M.6 B.v.B.v.v.v.h z.z.z.z.z.z., z.$     ",
"    b $.$.+.p S.O...o.o.} 6 m._ ` _ _ ` h n.) ` _ _ _ , z.$     ",
"    z +.O.+.p v.o..._ O._ 5 v._ _ ` ) } h z.` ` ` ` ` , z.$     ",
"    z p 6 p 6 p 5 5 5 5 < 5 < < , , , , , , , , , , , h , o     ",
"    p M.M.v.v.B.z.h z.v.z.z.z.z., z.z.z.z.z.z., z.z.z.z.z.$     ",
"    z o.} } _ _ _ h M.) _ _ _ _ , z.` ` ` ` ` , n.) } } ) o     ",
"    p { _ } _ ` _ , z._ _ _ _ _ , z.` ` } ) ` , z.` ` ` ` X     ",
"    p < 3 3 , , , 1 , , , , , , , , , , h , , , , h , , , X     ",
"    p z.z., z.z.z.z.z.z., z.z.z.z.z.z., z.z.z.z.z.z., z.z.o     ",
"    p _ ` , z.` _ _ _ _ , z._ _ ` ` ` , z.` ` ` ` ` , z._ o     ",
"    p _ ` < z._ _ _ _ _ 5 z._ _ ) } ` , v.` ` ` } ) < z._ .     ",
"    9 9 9 : : : 9 : : % % % % % : % # # $ $ X X % o o o . .     ",
"                                                                ",
"                                                                "
};
